<?xml version="1.0" encoding="utf-8"?>
<!-- Generator: Adobe Illustrator 19.2.1, SVG Export Plug-In . SVG Version: 6.00 Build 0)  -->
<svg version="1.1" id="Layer_1" xmlns="http://www.w3.org/2000/svg" xmlns:xlink="http://www.w3.org/1999/xlink" x="0px" y="0px"
	 viewBox="0 0 1000 1000" style="enable-background:new 0 0 1000 1000;" xml:space="preserve">
<style type="text/css">
	.st0{fill:none;stroke:#EF502E;stroke-width:4.9934;stroke-miterlimit:10;}
	.st1{fill:none;stroke:#EF502E;stroke-width:5;stroke-miterlimit:10;}
	.st2{fill:none;stroke:#EF502E;stroke-width:3.3775;stroke-miterlimit:10;}
	.st3{fill:#FFFFFF;stroke:#EF502E;stroke-width:4.9934;stroke-miterlimit:10;}
</style>
<g>
	<path class="st2" d="M586.6,78.3c36.4,25.8,56.5,60.9,57.2,106.4c0.2,14-3.4,17.9-16.6,10c-15.7-9.4-33.3-14.7-50.8-20
		c-7.1-2.1-15.5-4.8-18.6,4.6c-3.4,10.4,5.2,13.4,13.1,15.7c17.6,5.1,34.6,11.6,50.4,20.8c7.4,4.3,14.8,8.9,18.7,16.8
		c2.8,5.6,3.6,12.1-0.8,17.2c-4.5,5.3-10.1,2.6-15,0.1c-15.2-7.8-31.4-13-47.8-17.6c-8.3-2.3-18.7-3.7-21.2,7.2
		c-2.2,9.6,7.9,10.6,14.6,12.6c21.6,6.5,42.4,14.4,60.9,28c6.7,4.9,10.5,10,9.8,17.9c-0.5,5.6-1.8,11.5-9.2,11.1
		c-9.1-0.4-64.4-25.9-78.3-19.4c-4.5,2.1-10.4,9.5-5.3,13.9c5.9,5,65.9,21.7,83.4,31.8c5.8,3.3,11.1,19.4,5.6,27.1
		c-4.6,6.4-83.2-25.2-86-15.5c-2.5,8.8,4.7,21.7,11.3,23.6c14.6,4.2,71.9,21.3,75.5,27.5c4.7,8,3.7,17-11.5,20.3
		c-16.3-4.9-35.4-8.8-51.7-13.2c-7.5-2.1-17.1-4.9-19.8,5.9c-2.6,10.5,6.6,12.9,14.5,14.8c21.5,4.8,41.8,11.3,56.9,18.9
		c13.4,5.7,13,15.4,9.7,25.4c-3.8,11.6-13.4,5.7-20,3.3c-11-3.9-51.3-16.8-59.8-10.6c-3.1,2.3-5,5.6-3.9,9.5
		c1.5,5.9,6,8.9,11.7,10.1c18.4,3.8,36.7,8.3,54.5,14.5c13.6,4.7,18.8,12.1,17.8,27.1c-3.5,51.4-32.7,86.8-85,97.4
		c-15.9,3.2-20.8,10.2-21.8,25.1c-2.1,31.5-5.4,62.9-8.8,94.3c-4,37.9-22.7,56.5-57.4,58.2c-33.4,1.6-66.2-21-72-52.5
		c-5.4-29.2-6.7-59.2-3.3-88.8c1.8-15.7-3.4-22.6-18.7-24.1c-31.5-3.2-62.6-8.1-92.3-20.1c-36.4-14.8-54.2-40.2-54.4-79.8
		c-0.3-58.5-1.5-49.1,47.4-59.7c4.2-0.9,8.4-1.7,12.4-3.1c5.2-1.8,8-5.5,6.8-11.2c-1.2-5.7-5.5-8.2-10.8-7.5
		c-10.2,1.4-20.3,3.7-30.5,5.3c-7.9,1.2-17.9,6.6-21.9-5c-3.9-11.2,1.2-20.9,11.8-25.5c10.5-4.5,21.9-7.1,32.9-10.5
		c4.1-1.3,8.2-2.5,12.1-4c5.1-2,8-5.7,6.3-11.4c-1.7-5.7-6.2-7.4-11.5-6.3c-10.1,2.1-20.1,4.8-30.2,6.8c-7.4,1.4-16.6,6.2-20.4-4.4
		c-3.4-9.3,0-18.4,8.4-24.1c11.2-7.6,24.4-10.5,37.3-14.2c7.8-2.2,19.4-2.4,16-14.8c-2.9-10.8-12.8-6.8-20.1-5.1
		c-8.9,2-17.4,5.4-26.2,7.7c-13.2,3.6-16.7-3-14.5-14.7c1.9-9.9,8.7-16.1,17.4-19.6c11.3-4.5,23-7.8,34.5-11.5
		c6.5-2.1,11.3-5.5,9.3-13.1c-1.7-6.6-7.4-7.9-13.2-6.5c-11.2,2.6-22.3,5.7-33.3,9c-11.3,3.4-14.8-1.8-13.7-11.9
		c1.4-13.1,10.5-20.2,21.8-24.6c9.6-3.7,19.7-6.2,29.4-9.5c7.1-2.4,12.1-7,8.9-15.1c-2.8-7-8.9-7.4-15.3-5.2
		c-9.2,3.1-18.4,6.2-27.6,9.3c-4.6,1.6-9.4,3.8-13.5-0.6c-3.7-4-2.9-9.1-1.7-13.9c2.9-11.1,11.3-17,21-21.3
		c10-4.4,20.4-7.9,30.5-12.1c5.7-2.4,8.9-6.8,6.5-13c-2.4-6.3-7.9-7.3-13.6-5.4c-10.4,3.4-20.7,7.2-30.9,10.9
		c-5.7,2.1-12.1,2.9-12.6-4.8c-1.6-26.2,3.6-51,16.2-73.6C258.3,63.3,534.6,21.5,586.6,78.3z M403.1,578.8
		c-10.3-12.9-18.8-26.6-19.8-43.7c-0.6-10.8-1-21.6-1.5-32.5c-0.3-6.4-3.3-10.5-9.8-10.8c-6.8-0.3-10.2,4.5-10.2,10.3
		c0.1,26.9-2.2,54.5,15.9,77.8c19.4,24.6,46.7,29.5,75.6,30.3c4.2,0.1,9.5-1.2,10.3-5.7c1.3-6.9-5.4-7.1-9.6-8
		C436.4,592.5,419.3,586.9,403.1,578.8z M476.2,348.4c14.8,0.8,16.6-21.9,1.9-23.9c-0.3,0-0.5-0.1-0.8-0.1
		c-47.1-6.2-93.7-4.7-140.4,0.9c-8.9,1.1-20.4,2.7-18,15.7c2.1,11.6,12.9,9,21.4,8.2c2-0.2,4.1-0.6,6-1
		C394.8,338.5,431.9,346,476.2,348.4z M354.1,264.9c-4.2,0.8-8.4,1.5-12.5,2.5c-9.3,2.2-24.9-1-22.5,14c2.1,12.8,16.1,7.6,24.9,6.1
		c43.7-7.7,87-5.6,130.3,2.7c8.6,1.6,18.5,4.6,20.6-7.3c1.8-10.4-8.3-12.5-15.9-13.6C437.6,263.1,396.1,256.8,354.1,264.9z
		 M359.6,148.3c-9.5,1.9-19,3.8-28.5,5.6c-7.1,1.3-13.8,3.5-11.7,12.5c2.1,9,9.1,7.8,16.1,6.3c47.4-10.1,94.8-12.4,142.2-0.5
		c7.9,2,16.9,3.9,19.4-6.7c2.6-11.3-7.4-12.1-14.9-13.8C441.6,142.6,400.8,139.2,359.6,148.3z M348.3,207.5
		c-4.8,0.9-9.5,1.7-14.2,2.8c-7,1.7-15.8,2.6-14.1,12.8c1.7,10.2,10.3,8.7,17.4,7.1c47.5-10.4,94.9-9.3,142.2,1.5
		c7.9,1.8,15.4,0.6,16.9-8.6c1.4-8.9-6.3-10.5-12.9-12C438.7,201.5,393.6,199.6,348.3,207.5z M344.5,382.4c-4,0.8-7.1,1.2-10,2
		c-7.3,2-18.2,2-15.8,13.1c2.2,10,12.1,7.7,19.9,6.9c9.7-1,19.3-2.3,28.9-3c36.5-2.3,72.7,1.6,108.8,6.7c7.6,1.1,15.7,1.7,17.3-8.1
		c1.7-10.4-7.3-11.4-14.3-12.5C434.4,380.7,389.1,377.4,344.5,382.4z M328.3,442.7c-6.1,1.2-11.4,6-10.5,11.9
		c1.3,8.3,7.7,8.5,13.9,7.8c48.7-5.4,97-0.6,145.4,4.5c6.6,0.7,14.5,1.5,15.7-7.9c1.1-8.8-6.1-11.2-12.9-12.2
		C430.4,439.4,380.8,437,328.3,442.7z M386.3,608.6c-6.2-2.8-8.3-3.9-10.5-4.6c-49.1-15.9-59.7-29.6-62.5-80.4
		c-0.3-4.8,0-9.7-0.2-14.5c-0.3-6.1-2.9-11.3-9.3-11.5c-8.1-0.2-9.7,6.3-9.3,12.7c0.6,12.1,1.1,24.3,2.9,36.2
		C304.1,589.4,337.4,613.7,386.3,608.6z M490.5,742.3c-3.2-9.5-9.3-17.8-21.7-15.2c-13.7,2.9-15.3,13.4-12.6,25.4
		c2.6,11.4,9.5,19.5,21.4,16.9C490.5,766.5,492.4,755.3,490.5,742.3z M282.6,594.4c-8.8-12.7-13.7-26.3-15.4-40.9
		c-1.6-13.2-2.4-26.5-3.8-39.7c-0.5-4.8-1.2-10.9-7.2-11c-7.2-0.1-8.6,6.7-8.1,11.9c1.2,13.2,3.3,26.4,5.5,39.5
		C256.6,572.3,265.7,586.4,282.6,594.4z"/>
	<path class="st2" d="M528.2,891.3c4.6,23.2,8.7,46.6,13.9,69.7c2.6,12-0.5,18.4-13,20.6c-20.3,3.6-40.6,7.7-60.8,12.1
		c-11.8,2.6-18.1-1-20.4-13.5c-9.3-49.5-19.1-98.8-29.2-148.2c-3-14.8-0.7-20.2,16-15.5c21.4,6,43.5,5.7,64-4.2
		c11.1-5.3,14-0.1,15.8,9.2C519,844.9,523.6,868.1,528.2,891.3z"/>
</g>
</svg>
