<?xml version="1.0" encoding="utf-8"?>
<!-- Generator: Adobe Illustrator 19.2.1, SVG Export Plug-In . SVG Version: 6.00 Build 0)  -->
<svg version="1.1" id="Layer_1" xmlns="http://www.w3.org/2000/svg" xmlns:xlink="http://www.w3.org/1999/xlink" x="0px" y="0px"
	 viewBox="0 0 1000 1000" style="enable-background:new 0 0 1000 1000;" xml:space="preserve">
<style type="text/css">
	.st0{fill:none;stroke:#EF502E;stroke-width:4.9934;stroke-miterlimit:10;}
	.st1{fill:none;stroke:#EF502E;stroke-width:5;stroke-miterlimit:10;}
	.st2{fill:none;stroke:#EF502E;stroke-width:3.3775;stroke-miterlimit:10;}
	.st3{fill:#FFFFFF;stroke:#EF502E;stroke-width:4.9934;stroke-miterlimit:10;}
</style>
<path class="st0" d="M651.7,511.3c-10.3,2.2-19.2-4.5-22.9-14.5l0-0.2c-2.1-10.3,4.7-20.6,15-22.8L752,450.8l-8.2-39.1l-108.1,23
	c-10.3,2.2-20.4-4.5-22.6-14.8c-2.2-10.3,4.4-20.5,14.7-22.7l108.2-23l-8.3-39.1l-107.8,23c-10.3,2.2-20.1-4.3-22.2-14.6l0-0.2
	c-2.1-10.3,4-20.5,14.3-22.7l108-23l-8.4-39.1l-108.2,23.1c-10.3,2.2-20.5-4.5-22.6-14.7c-2.2-10.3,4.3-20.5,14.6-22.7l108.2-23
	l-8.3-39.1l-108.2,23c-10.3,2.2-20.4-4.5-22.6-14.8s4.4-20.5,14.6-22.7l108.7-23.2c-17.2-67.8-85.1-109.5-154.4-94.7L386.1,81.2
	C316.8,96,271.9,161.7,283.8,230.6l112.5-24c10.3-2.2,20.4,4.5,22.6,14.8c2.2,10.3-4.4,20.5-14.6,22.7l-113,24.1l8.3,39.1l113-24.1
	c10.3-2.2,20.4,4.5,22.6,14.8c2.2,10.3-4.4,20.5-14.6,22.7l-113,24.1l8.3,39.1l113.6-24.2c10.3-2.2,21.1,4.5,23.2,14.8l0,0
	c2.1,10.3-5,20.5-15.2,22.7l-113.3,24.1l8.2,39.1l112.9-24.1c10.3-2.2,20.4,4.5,22.6,14.8c2.2,10.3-4.4,20.5-14.7,22.7l-113,24.1
	l8.3,39.1l112.9-24.1c10.3-2.2,20.4,4.6,22.5,14.9l0,0c3.7,10-4.3,20.4-14.6,22.6l-112.9,24.1l2.8,13.2
	c15.1,71,85.3,116.1,156.2,101l147.1-31.3c71-15.1,115.5-84.7,100.4-155.7l-3-13.1L651.7,511.3z"/>
<path class="st1" d="M675.5,889.5h-63v-175h-34v175H509c-7.8,0-14.1,6.2-14.1,14c0,7.8,6.3,14,14.1,14h166.4c7.8,0,14.1-6.2,14.1-14
	C689.6,895.7,683.3,889.5,675.5,889.5z"/>
<path class="st3" d="M781.4,553.3c-8.4,52.1-40.6,90.4-99.1,113.6c0,0-37.7,10-88.4,21.2c-51.3,10.6-89.6,16.9-89.6,16.9
	c-62.9,2.8-108.2-19.1-137.2-63.1c-4.2-6.4-11.9-9.7-19.4-8l0,0c-11.6,2.6-17.7,15.5-12.4,26.1c18.2,36.1,67.4,103.1,176.1,79.9
	c33.8-7.2,62.6-13.4,87.9-18.8c1.1-0.2,2.2-0.5,3.3-0.7c24.6-5.3,53.5-11.4,87.2-18.6C798.4,678.5,816,597.2,817.8,556.9
	c0.5-11.9-10.3-21.2-22-18.8h0C788.3,539.6,782.6,545.7,781.4,553.3z"/>
</svg>
