<?xml version="1.0" encoding="utf-8"?>
<!-- Generator: Adobe Illustrator 19.2.1, SVG Export Plug-In . SVG Version: 6.00 Build 0)  -->
<svg version="1.1" id="Layer_1" xmlns="http://www.w3.org/2000/svg" xmlns:xlink="http://www.w3.org/1999/xlink" x="0px" y="0px"
	 viewBox="0 0 1000 1000" style="enable-background:new 0 0 1000 1000;" xml:space="preserve">
<style type="text/css">
	.st0{fill:none;stroke:#EF502E;stroke-width:4.9934;stroke-miterlimit:10;}
	.st1{fill:none;stroke:#EF502E;stroke-width:5;stroke-miterlimit:10;}
	.st2{fill:none;stroke:#EF502E;stroke-width:3.3775;stroke-miterlimit:10;}
	.st3{fill:#FFFFFF;stroke:#EF502E;stroke-width:4.9934;stroke-miterlimit:10;}
</style>
<path class="st1" d="M616.2,539.3c-9.8,0.1-16.7-7.6-18.7-17.4v-0.1c0-9.8,8.6-17.9,18.4-18l103.2-0.9l-0.1-37.1l-102.7,0.9
	c-9.8,0.1-17.7-7.9-17.8-17.6c-0.1-9.8,7.8-17.9,17.6-17.9l102.8-0.9l-0.3-37.1l-102.9,0.9c-9.8,0.1-18-7.6-18-17.4v-0.2
	c0-9.8,7.9-17.9,17.7-18l102.9-0.9l-0.3-37.1L615,321.2c-9.8,0.1-17.8-7.9-17.9-17.6s7.8-17.9,17.5-17.9l102.8-0.9l-0.3-37.1
	l-102.8,0.9c-9.8,0.1-17.8-7.9-17.9-17.6c-0.1-9.8,7.8-17.9,17.5-17.9l103.3-0.9c-3.1-64.9-57.2-115.5-123-114.9l-139.8,1.3
	c-65.8,0.6-119,52.1-120.9,117.1l106.9-1c9.8-0.1,17.8,7.9,17.9,17.6c0.1,9.8-7.8,17.9-17.5,17.9l-107.3,1l0.3,37.1l107.3-1
	c9.8-0.1,17.8,7.9,17.9,17.6s-7.8,17.9-17.5,17.9l-107.3,1l0.3,37.1l107.7-1c9.8-0.1,18.2,8,18.2,17.8v0c0,9.8-8.1,17.7-17.9,17.8
	l-107.5,1l0.2,37.1l107.3-1c9.8-0.1,17.8,7.9,17.8,17.6s-7.8,17.9-17.6,17.9l-107.3,1l0.3,37.1l107-1c9.8-0.1,17.6,8,17.6,17.8v0
	c1,9.8-7.5,17.8-17.2,17.8l-107.2,1l0.2,12.5c0.6,67.4,56.1,121.6,123.5,121l139.8-1.3c67.4-0.6,120.9-55.7,120.3-123.1l-0.5-12.5
	L616.2,539.3z"/>
<path class="st1" d="M596.2,877.5h-58.7v-163h-31v163h-64.9c-7.3,0-13.1,5.7-13.1,13c0,7.3,5.9,13,13.1,13h154.7
	c7.3,0,13.1-5.7,13.1-13C609.4,883.2,603.5,877.5,596.2,877.5z"/>
<path class="st3" d="M722.4,601.6c-17.3,45.8-53.7,74.8-111.3,85.1c0,0-36.2,2.1-84.4,2.9c-48.7,0.1-84.7-1.3-84.7-1.3
	c-57.8-9.1-95-37.4-113.3-82.9c-2.7-6.6-9.1-11-16.2-10.9l0,0c-11.1,0.2-19,10.8-16.1,21.5c9.8,36.2,42.3,106.4,145.6,105.4
	c32.1-0.3,59.5-0.6,83.5-0.8c1,0,2.1,0,3.1,0c23.4-0.2,50.8-0.5,82.9-0.8c103.3-1,134.4-71.8,143.5-108.2
	c2.7-10.8-5.4-21.2-16.5-21.2l0,0C731.2,590.4,724.9,594.9,722.4,601.6z"/>
</svg>
